<svg width="56" height="56" viewBox="0 0 56 56" fill="none" xmlns="http://www.w3.org/2000/svg">
<path d="M37.2148 37C37.2148 34.2386 39.4534 32 42.2148 32C44.9763 32 47.2148 34.2386 47.2148 37C47.2148 39.7614 44.9763 42 42.2148 42C39.4534 42 37.2148 39.7614 37.2148 37Z" fill="#47B5FF"/>
<path d="M28.4754 17.8296C29.1901 15.1623 31.9318 13.5794 34.5992 14.2941C37.2665 15.0088 38.8494 17.7505 38.1347 20.4178L33.476 37.8045C32.7612 40.4718 30.0196 42.0547 27.3522 41.34C24.6849 40.6253 23.102 37.8836 23.8167 35.2163L28.4754 17.8296Z" fill="#47B5FF"/>
<path d="M14.953 17.8296C15.6677 15.1623 18.4094 13.5794 21.0767 14.2941C23.744 15.0088 25.3269 17.7505 24.6122 20.4178L19.9535 37.8045C19.2388 40.4718 16.4971 42.0547 13.8298 41.34C11.1624 40.6253 9.57952 37.8836 10.2942 35.2163L14.953 17.8296Z" fill="#47B5FF"/>
</svg>
