<svg width="40" height="40" viewBox="0 0 40 40" fill="none" xmlns="http://www.w3.org/2000/svg">
<g id="Logo">
<path id="Rectangle 97" d="M0 8.57143C0 3.83756 3.83756 0 8.57143 0H31.4286C36.1624 0 40 3.83756 40 8.57143V31.4286C40 36.1624 36.1624 40 31.4286 40H8.57143C3.83756 40 0 36.1624 0 31.4286V8.57143Z" fill="#47B5FF"/>
<path id="Rectangle 99" d="M10.5272 14.164C11.0377 12.2588 12.9961 11.1281 14.9013 11.6386C16.8066 12.1492 17.9372 14.1075 17.4267 16.0127L14.099 28.4318C13.5885 30.337 11.6302 31.4677 9.72494 30.9572C7.8197 30.4467 6.68905 28.4883 7.19956 26.5831L10.5272 14.164Z" fill="white"/>
<path id="Rectangle 100" d="M20.1865 14.164C20.697 12.2588 22.6553 11.1281 24.5606 11.6386C26.4658 12.1492 27.5965 14.1075 27.086 16.0127L23.7583 28.4318C23.2478 30.337 21.2894 31.4677 19.3842 30.9572C17.479 30.4467 16.3483 28.4883 16.8588 26.5831L20.1865 14.164Z" fill="white"/>
<path id="Rectangle 101" d="M26.4286 27.8571C26.4286 25.8847 28.0276 24.2857 30 24.2857C31.9724 24.2857 33.5714 25.8847 33.5714 27.8571C33.5714 29.8296 31.9724 31.4286 30 31.4286C28.0276 31.4286 26.4286 29.8296 26.4286 27.8571Z" fill="white"/>
</g>
</svg>
