<svg width="574" height="574" viewBox="0 0 574 574" fill="none" xmlns="http://www.w3.org/2000/svg">
<path d="M0 123C0 55.069 55.069 0 123 0H451C518.931 0 574 55.069 574 123V451C574 518.931 518.931 574 451 574H123C55.069 574 0 518.931 0 451V123Z" fill="#47B5FF"/>
<path d="M151.066 203.254C158.391 175.914 186.494 159.689 213.834 167.014C241.174 174.34 257.399 202.443 250.073 229.783L202.321 407.996C194.995 435.336 166.893 451.561 139.553 444.235C112.213 436.909 95.9877 408.807 103.313 381.467L151.066 203.254Z" fill="white"/>
<path d="M289.676 203.254C297.002 175.914 325.104 159.689 352.444 167.014C379.784 174.34 396.009 202.443 388.683 229.783L340.931 407.996C333.605 435.336 305.503 451.561 278.163 444.235C250.823 436.909 234.598 408.807 241.924 381.467L289.676 203.254Z" fill="white"/>
<path d="M379.25 399.75C379.25 371.445 402.195 348.5 430.5 348.5C458.805 348.5 481.75 371.445 481.75 399.75C481.75 428.055 458.805 451 430.5 451C402.195 451 379.25 428.055 379.25 399.75Z" fill="white"/>
</svg>
