<svg width="40" height="40" viewBox="0 0 40 40" fill="none" xmlns="http://www.w3.org/2000/svg">
<g id="send">
<g id="send_2">
<path id="Vector" d="M8.33343 33.7501C8.6501 33.7501 8.96676 33.6334 9.21676 33.3834L32.5501 10.0501C33.0334 9.56673 33.0334 8.76673 32.5501 8.2834C32.0668 7.80007 31.2668 7.80007 30.7834 8.2834L7.4501 31.6167C6.96677 32.1001 6.96677 32.9001 7.4501 33.3834C7.7001 33.6334 8.01677 33.7501 8.33343 33.7501Z" fill="white"/>
<path id="Vector_2" d="M31.6667 27.5334C32.35 27.5334 32.9167 26.9667 32.9167 26.2834V9.16675C32.9167 8.48341 32.35 7.91675 31.6667 7.91675H14.55C13.8667 7.91675 13.3 8.48341 13.3 9.16675C13.3 9.85008 13.8667 10.4167 14.55 10.4167H30.4167V26.2834C30.4167 26.9667 30.9834 27.5334 31.6667 27.5334Z" fill="white"/>
</g>
</g>
</svg>
