<svg width="20" height="20" viewBox="0 0 20 20" fill="none" xmlns="http://www.w3.org/2000/svg">
<g clip-path="url(#clip0_1052_79)">
<path d="M10 2.33301C5.76804 2.33301 2.33337 5.76767 2.33337 9.99968C2.33337 14.2317 5.76804 17.6663 10 17.6663C14.2244 17.6663 17.6667 14.2317 17.6667 9.99968C17.6667 5.76767 14.2244 2.33301 10 2.33301ZM15.0639 5.86734C16.0074 7.01681 16.5295 8.45436 16.5435 9.94141C16.3281 9.90001 14.1661 9.45918 11.9872 9.73364C11.9374 9.62554 11.8952 9.50901 11.8462 9.39248C11.7105 9.07281 11.5663 8.75683 11.4138 8.44488C13.8249 7.46354 14.9228 6.04981 15.0639 5.86734ZM10 3.46384C11.6637 3.46384 13.1848 4.08791 14.3409 5.11064C14.2244 5.27624 13.2346 6.59874 10.9062 7.47198C9.83367 5.50164 8.64458 3.88781 8.46134 3.63864C8.9657 3.52073 9.48209 3.46207 10 3.46384ZM7.21474 4.07947C8.09213 5.29565 8.90268 6.55869 9.64278 7.86298C6.58224 8.67794 3.87974 8.66031 3.58917 8.66031C3.79988 7.66911 4.23671 6.73997 4.8656 5.94538C5.49449 5.15079 6.29844 4.51222 7.21474 4.07947ZM3.44734 10.0073V9.80801C3.73101 9.81568 6.90654 9.85784 10.1748 8.87651C10.3665 9.24221 10.5405 9.61634 10.7069 9.99048C10.6233 10.0158 10.5321 10.0403 10.4493 10.0656C7.07291 11.1543 5.27661 14.1312 5.12711 14.3812C4.04598 13.1809 3.44783 11.6227 3.44811 10.0073H3.44734ZM10 16.5524C8.54447 16.5549 7.13015 16.0689 5.98347 15.1724C6.10001 14.9309 7.43094 12.3694 11.1224 11.0807C11.1393 11.073 11.1477 11.073 11.1638 11.0638C11.7866 12.6703 12.2546 14.3325 12.5615 16.028C11.7525 16.3761 10.8807 16.5546 10 16.5524ZM13.6501 15.4292C13.5842 15.0305 13.2346 13.1177 12.3775 10.7648C14.4321 10.4405 16.2284 10.9726 16.4523 11.0477C16.3125 11.9317 15.9914 12.7773 15.5092 13.5313C15.0269 14.2853 14.394 14.9315 13.6501 15.4292Z" fill="#141414"/>
</g>
<defs>
<clipPath id="clip0_1052_79">
<rect width="18.4" height="18.4" fill="white" transform="translate(0.800049 0.799805)"/>
</clipPath>
</defs>
</svg>
