<svg width="20" height="20" viewBox="0 0 20 20" fill="none" xmlns="http://www.w3.org/2000/svg">
<g clip-path="url(#clip0_1052_18)">
<path d="M10 7.69968C9.39004 7.69968 8.80503 7.942 8.3737 8.37333C7.94236 8.80466 7.70004 9.38968 7.70004 9.99968C7.70004 10.6097 7.94236 11.1947 8.3737 11.626C8.80503 12.0574 9.39004 12.2997 10 12.2997C10.61 12.2997 11.1951 12.0574 11.6264 11.626C12.0577 11.1947 12.3 10.6097 12.3 9.99968C12.3 9.38968 12.0577 8.80466 11.6264 8.37333C11.1951 7.942 10.61 7.69968 10 7.69968ZM10 6.16634C11.0167 6.16634 11.9917 6.57021 12.7106 7.2891C13.4295 8.00799 13.8334 8.98301 13.8334 9.99968C13.8334 11.0163 13.4295 11.9914 12.7106 12.7103C11.9917 13.4291 11.0167 13.833 10 13.833C8.98338 13.833 8.00836 13.4291 7.28947 12.7103C6.57058 11.9914 6.16671 11.0163 6.16671 9.99968C6.16671 8.98301 6.57058 8.00799 7.28947 7.2891C8.00836 6.57021 8.98338 6.16634 10 6.16634ZM14.9834 5.97467C14.9834 6.22884 14.8824 6.4726 14.7027 6.65232C14.523 6.83204 14.2792 6.93301 14.025 6.93301C13.7709 6.93301 13.5271 6.83204 13.3474 6.65232C13.1677 6.4726 13.0667 6.22884 13.0667 5.97467C13.0667 5.72051 13.1677 5.47675 13.3474 5.29703C13.5271 5.11731 13.7709 5.01634 14.025 5.01634C14.2792 5.01634 14.523 5.11731 14.7027 5.29703C14.8824 5.47675 14.9834 5.72051 14.9834 5.97467ZM10 3.86634C8.10331 3.86634 7.79357 3.87171 6.91114 3.91081C6.31007 3.93917 5.90681 4.01967 5.53267 4.16534C5.19994 4.29414 4.95997 4.44824 4.70467 4.70431C4.46471 4.93615 4.28021 5.21919 4.16494 5.53231C4.01927 5.90797 3.93877 6.31048 3.91117 6.91078C3.87131 7.75718 3.86671 8.05311 3.86671 9.99968C3.86671 11.8964 3.87207 12.2061 3.91117 13.0886C3.93954 13.6889 4.02004 14.0929 4.16494 14.4663C4.29527 14.7998 4.44861 15.0397 4.70314 15.2943C4.96151 15.5519 5.20147 15.706 5.53114 15.8332C5.90987 15.9797 6.31314 16.0609 6.91114 16.0885C7.75754 16.1284 8.05347 16.133 10 16.133C11.8968 16.133 12.2065 16.1276 13.0889 16.0885C13.6885 16.0602 14.0925 15.9797 14.4666 15.8348C14.7986 15.7052 15.0401 15.5511 15.2946 15.2966C15.553 15.0382 15.7071 14.7982 15.8344 14.4686C15.98 14.0906 16.0613 13.6866 16.0889 13.0886C16.1288 12.2422 16.1334 11.9462 16.1334 9.99968C16.1334 8.10294 16.128 7.79321 16.0889 6.91078C16.0605 6.31124 15.98 5.90644 15.8344 5.53231C15.7188 5.21951 15.5347 4.93658 15.2954 4.70431C15.0637 4.46422 14.7806 4.2797 14.4674 4.16457C14.0917 4.01891 13.6885 3.93841 13.0889 3.91081C12.2425 3.87094 11.9466 3.86634 10 3.86634ZM10 2.33301C12.0831 2.33301 12.343 2.34067 13.1602 2.37901C13.9767 2.41734 14.5326 2.54537 15.0217 2.73551C15.5277 2.93024 15.954 3.19397 16.3802 3.61947C16.7701 4.00273 17.0717 4.46633 17.2642 4.97801C17.4536 5.46637 17.5824 6.02297 17.6207 6.83948C17.6567 7.65674 17.6667 7.91664 17.6667 9.99968C17.6667 12.0827 17.659 12.3426 17.6207 13.1599C17.5824 13.9764 17.4536 14.5322 17.2642 15.0213C17.0723 15.5333 16.7706 15.997 16.3802 16.3799C15.9969 16.7696 15.5333 17.0712 15.0217 17.2638C14.5333 17.4532 13.9767 17.582 13.1602 17.6203C12.343 17.6564 12.0831 17.6663 10 17.6663C7.91701 17.6663 7.65711 17.6587 6.83984 17.6203C6.02334 17.582 5.46751 17.4532 4.97837 17.2638C4.46649 17.0718 4.00281 16.7701 3.61984 16.3799C3.22992 15.9967 2.92825 15.5331 2.73587 15.0213C2.54574 14.533 2.41771 13.9764 2.37937 13.1599C2.34334 12.3426 2.33337 12.0827 2.33337 9.99968C2.33337 7.91664 2.34104 7.65674 2.37937 6.83948C2.41771 6.02221 2.54574 5.46714 2.73587 4.97801C2.92772 4.46601 3.22946 4.00229 3.61984 3.61947C4.00292 3.22942 4.46657 2.92773 4.97837 2.73551C5.46751 2.54537 6.02257 2.41734 6.83984 2.37901C7.65711 2.34297 7.91701 2.33301 10 2.33301Z" fill="#141414"/>
</g>
<defs>
<clipPath id="clip0_1052_18">
<rect width="18.4" height="18.4" fill="white" transform="translate(0.800049 0.799805)"/>
</clipPath>
</defs>
</svg>
