<svg width="20" height="20" viewBox="0 0 20 20" fill="none" xmlns="http://www.w3.org/2000/svg">
<g clip-path="url(#clip0_1052_30)">
<path d="M14.8569 14.8595H12.8138V11.6571C12.8138 10.8935 12.7984 9.91068 11.7481 9.91068C10.6832 9.91068 10.5207 10.7417 10.5207 11.6012V14.8595H8.47673V8.27461H10.4394V9.17161H10.4662C10.7407 8.65488 11.4077 8.10824 12.4044 8.10824C14.4744 8.10824 14.8577 9.47138 14.8577 11.2447V14.8595H14.8569ZM6.16906 7.37378C6.01309 7.37398 5.85861 7.34339 5.71448 7.28377C5.57035 7.22416 5.4394 7.13668 5.32915 7.02635C5.21889 6.91602 5.1315 6.78502 5.07197 6.64085C5.01245 6.49668 4.98196 6.34218 4.98226 6.18621C4.98242 5.95148 5.05217 5.72207 5.1827 5.52699C5.31324 5.3319 5.49869 5.17991 5.7156 5.09022C5.93252 5.00054 6.17116 4.97719 6.40135 5.02313C6.63154 5.06907 6.84293 5.18224 7.0088 5.34832C7.17467 5.51441 7.28757 5.72595 7.33321 5.9562C7.37885 6.18644 7.3552 6.42505 7.26523 6.64185C7.17527 6.85865 7.02303 7.04391 6.82778 7.17419C6.63253 7.30447 6.40302 7.37393 6.1683 7.37378H6.16906ZM7.19333 14.8595H5.14403V8.27461H7.1941V14.8595H7.19333ZM15.8804 3.09961H4.119C3.55473 3.09961 3.1001 3.54428 3.1001 4.09398V15.9052C3.1001 16.4549 3.5555 16.8996 4.11823 16.8996H15.8774C16.4401 16.8996 16.9001 16.4549 16.9001 15.9052V4.09398C16.9001 3.54428 16.4401 3.09961 15.8774 3.09961H15.8797H15.8804Z" fill="#141414"/>
</g>
<defs>
<clipPath id="clip0_1052_30">
<rect width="18.4" height="18.4" fill="white" transform="translate(0.800049 0.799805)"/>
</clipPath>
</defs>
</svg>
